<svg width="23" height="23" viewBox="0 0 23 23" fill="none" xmlns="http://www.w3.org/2000/svg">
<g clip-path="url(#clip0_390_356)">
<path d="M6.59675 18.989L6.95214 19.1668C8.43316 20.0553 10.0917 20.47 11.7504 20.47C16.9633 20.47 21.2283 16.2049 21.2283 10.9921C21.2283 8.50415 20.2212 6.07542 18.4442 4.29828C16.6671 2.52115 14.2975 1.51416 11.7504 1.51416C6.53756 1.51416 2.27242 5.77921 2.3317 11.0513C2.3317 12.8284 2.86483 14.5463 3.75335 16.0272L3.99028 16.3827L3.04257 19.8777L6.59675 18.989Z" fill="#00E676"/>
<path d="M19.4512 3.35065C17.4371 1.27739 14.653 0.151855 11.8096 0.151855C5.7675 0.151855 0.910044 5.06851 0.969233 11.0514C0.969233 12.947 1.50237 14.7834 2.39097 16.442L0.850769 22.0695L6.59675 20.5886C8.19615 21.4772 9.9732 21.8919 11.7504 21.8919C17.7333 21.8919 22.5908 16.9751 22.5908 10.9923C22.5908 8.08964 21.4653 5.36471 19.4513 3.35065H19.4512ZM11.8096 20.0556C10.2102 20.0556 8.61082 19.641 7.24835 18.8116L6.89296 18.6339L3.45724 19.5224L4.34576 16.146L4.10883 15.7905C1.50237 11.5847 2.74637 6.0163 7.01142 3.40984C11.2765 0.803452 16.7855 2.04745 19.392 6.31251C21.9984 10.5776 20.7544 16.0866 16.4894 18.6931C15.1269 19.5816 13.4683 20.0555 11.8096 20.0555V20.0556ZM17.0225 13.4803L16.3709 13.1841C16.3709 13.1841 15.4232 12.7694 14.8307 12.4732C14.7715 12.4732 14.7123 12.414 14.653 12.414C14.4753 12.414 14.3568 12.4732 14.2383 12.5325C14.2383 12.5325 14.1791 12.5917 13.3498 13.5395C13.2905 13.658 13.1721 13.7172 13.0536 13.7172H12.9943C12.9351 13.7172 12.8167 13.658 12.7574 13.5988L12.4612 13.4803C11.8096 13.1841 11.2173 12.8286 10.7433 12.3548C10.6249 12.2363 10.4471 12.1179 10.3287 11.9994C9.91401 11.5847 9.49934 11.1108 9.20322 10.5776L9.14395 10.4592C9.08476 10.3999 9.08476 10.3407 9.02548 10.2223C9.02548 10.1038 9.02548 9.98533 9.08476 9.92605C9.08476 9.92605 9.32169 9.62985 9.49934 9.45219C9.61789 9.33364 9.67708 9.15599 9.79554 9.03753C9.91401 8.85979 9.97328 8.62286 9.91401 8.44512C9.85482 8.14892 9.14395 6.54952 8.9663 6.19413C8.84775 6.01639 8.72937 5.9572 8.55163 5.89793H7.90003C7.78148 5.89793 7.6631 5.9572 7.54455 5.9572L7.48528 6.01639C7.36681 6.07566 7.24835 6.19413 7.12989 6.25332C7.01142 6.37187 6.95215 6.49025 6.83368 6.6088C6.41902 7.14193 6.18209 7.79352 6.18209 8.44512C6.18209 8.91898 6.30055 9.39292 6.47829 9.80759L6.53756 9.98533C7.0707 11.1108 7.78148 12.1179 8.72937 13.0064L8.9663 13.2433C9.14395 13.421 9.32169 13.5395 9.44015 13.7172C10.6842 14.7835 12.1058 15.5536 13.7052 15.9682C13.8829 16.0274 14.1199 16.0274 14.2976 16.0867H14.8899C15.1861 16.0867 15.5415 15.9682 15.7785 15.8498C15.9562 15.7313 16.0747 15.7313 16.1931 15.6128L16.3117 15.4943C16.4301 15.3758 16.5486 15.3166 16.6671 15.1982C16.7855 15.0797 16.904 14.9613 16.9633 14.8427C17.0817 14.6058 17.1409 14.3096 17.2002 14.0135V13.5988C17.2002 13.5988 17.1409 13.5395 17.0225 13.4803Z" fill="white"/>
</g>
<defs>
<clipPath id="clip0_390_356">
<rect width="21.7397" height="21.9944" fill="white" transform="translate(0.850769 0.151855)"/>
</clipPath>
</defs>
</svg>
