<svg width="55" height="40" viewBox="0 0 55 40" fill="none" xmlns="http://www.w3.org/2000/svg">
<path d="M20.039 32.2498C19.7467 34.3008 18.7243 36.1775 17.1595 37.5351C15.5947 38.8928 13.5925 39.6402 11.5208 39.6402C9.44916 39.6402 7.44704 38.8928 5.88222 37.5351C4.3174 36.1775 3.29497 34.3008 3.00272 32.2498H0.458344V2.74984C0.458344 2.09785 0.717346 1.47256 1.17837 1.01153C1.6394 0.550507 2.26469 0.291504 2.91668 0.291504H37.3333C37.9853 0.291504 38.6106 0.550507 39.0717 1.01153C39.5327 1.47256 39.7917 2.09785 39.7917 2.74984V7.6665H47.1667L54.5417 17.6375V32.2498H49.539C49.2467 34.3008 48.2243 36.1775 46.6595 37.5351C45.0947 38.8928 43.0925 39.6402 41.0208 39.6402C38.9492 39.6402 36.947 38.8928 35.3822 37.5351C33.8174 36.1775 32.795 34.3008 32.5027 32.2498H20.039ZM34.875 5.20817H5.37501V24.9978C6.34498 24.0075 7.53982 23.2663 8.85786 22.8372C10.1759 22.408 11.5781 22.3037 12.9451 22.533C14.3122 22.7623 15.6036 23.3186 16.7094 24.1543C17.8153 24.9901 18.7028 26.0806 19.2966 27.3332H33.2451C33.6581 26.4654 34.2113 25.6763 34.875 24.9978V5.20817ZM39.7917 19.9582H49.625V19.2575L44.6887 12.5832H39.7917V19.9582ZM41.0208 34.7082C41.9992 34.7082 42.9374 34.3195 43.6292 33.6278C44.3209 32.936 44.7096 31.9978 44.7096 31.0194C44.7096 30.0411 44.3209 29.1029 43.6292 28.4111C42.9374 27.7193 41.9992 27.3307 41.0208 27.3307C40.0425 27.3307 39.1043 27.7193 38.4125 28.4111C37.7207 29.1029 37.3321 30.0411 37.3321 31.0194C37.3321 31.9978 37.7207 32.936 38.4125 33.6278C39.1043 34.3195 40.0425 34.7082 41.0208 34.7082ZM15.2083 31.0207C15.2083 30.5364 15.113 30.0569 14.9277 29.6095C14.7423 29.1621 14.4707 28.7556 14.1283 28.4132C13.7859 28.0708 13.3794 27.7992 12.932 27.6139C12.4846 27.4286 12.0051 27.3332 11.5208 27.3332C11.0366 27.3332 10.5571 27.4286 10.1097 27.6139C9.66231 27.7992 9.2558 28.0708 8.91339 28.4132C8.57097 28.7556 8.29935 29.1621 8.11404 29.6095C7.92872 30.0569 7.83334 30.5364 7.83334 31.0207C7.83334 31.9987 8.22185 32.9366 8.91339 33.6281C9.60493 34.3197 10.5429 34.7082 11.5208 34.7082C12.4988 34.7082 13.4368 34.3197 14.1283 33.6281C14.8198 32.9366 15.2083 31.9987 15.2083 31.0207Z" fill="#D2B574"/>
</svg>
