<svg width="28" height="28" viewBox="0 0 28 28" fill="none" xmlns="http://www.w3.org/2000/svg">
<path fill-rule="evenodd" clip-rule="evenodd" d="M14.3783 0C6.85532 0 0.756714 6.09861 0.756714 13.6216C0.756714 21.1446 6.85532 27.2432 14.3783 27.2432C21.9014 27.2432 28 21.1446 28 13.6216C28 6.09861 21.9014 0 14.3783 0ZM11.3834 6.40076C12.1584 6.36549 12.406 6.35687 14.379 6.35687H14.3768C16.3504 6.35687 16.5971 6.36549 17.372 6.40076C18.1454 6.43618 18.6737 6.55862 19.1368 6.73828C19.6151 6.92368 20.0192 7.1719 20.4233 7.57602C20.8274 7.97983 21.0756 8.38515 21.2618 8.86297C21.4404 9.3249 21.563 9.85282 21.5993 10.6262C21.6341 11.4012 21.6432 11.6488 21.6432 13.6218C21.6432 15.5948 21.6341 15.8419 21.5993 16.6168C21.563 17.3899 21.4404 17.918 21.2618 18.38C21.0756 18.8577 20.8274 19.263 20.4233 19.6668C20.0196 20.071 19.6149 20.3198 19.1373 20.5053C18.675 20.685 18.1465 20.8074 17.3731 20.8429C16.5982 20.8781 16.3513 20.8867 14.3781 20.8867C12.4052 20.8867 12.1578 20.8781 11.3828 20.8429C10.6096 20.8074 10.0815 20.685 9.61928 20.5053C9.14176 20.3198 8.73644 20.071 8.33278 19.6668C7.92882 19.263 7.6806 18.8577 7.49489 18.3799C7.31538 17.918 7.19294 17.39 7.15737 16.6166C7.12226 15.8417 7.11348 15.5948 7.11348 13.6218C7.11348 11.6488 7.12256 11.401 7.15722 10.6261C7.19203 9.85297 7.31463 9.3249 7.49474 8.86282C7.6809 8.38515 7.92912 7.97983 8.33323 7.57602C8.73704 7.17205 9.14236 6.92384 9.62018 6.73828C10.0821 6.55862 10.61 6.43618 11.3834 6.40076Z" fill="#7D7D7D"/>
<path fill-rule="evenodd" clip-rule="evenodd" d="M13.7273 7.66588C13.8538 7.66568 13.99 7.66574 14.1369 7.66581L14.379 7.66588C16.3188 7.66588 16.5487 7.67284 17.3147 7.70765C18.023 7.74004 18.4074 7.8584 18.6635 7.95784C19.0025 8.08952 19.2443 8.24692 19.4984 8.5012C19.7527 8.75547 19.9101 8.99763 20.042 9.33666C20.1415 9.59245 20.26 9.97689 20.2922 10.6852C20.327 11.4511 20.3346 11.6811 20.3346 13.62C20.3346 15.5588 20.327 15.7888 20.2922 16.5547C20.2598 17.263 20.1415 17.6475 20.042 17.9032C19.9104 18.2423 19.7527 18.4837 19.4984 18.7378C19.2441 18.9921 19.0027 19.1495 18.6635 19.2812C18.4077 19.3811 18.023 19.4991 17.3147 19.5315C16.5488 19.5663 16.3188 19.5739 14.379 19.5739C12.4391 19.5739 12.2092 19.5663 11.4434 19.5315C10.735 19.4988 10.3506 19.3804 10.0944 19.281C9.75534 19.1493 9.51317 18.9919 9.2589 18.7376C9.00463 18.4834 8.84722 18.2418 8.71524 17.9026C8.6158 17.6468 8.49729 17.2624 8.46505 16.5541C8.43024 15.7882 8.42328 15.5582 8.42328 13.6181C8.42328 11.6781 8.43024 11.4492 8.46505 10.6834C8.49744 9.97507 8.6158 9.59063 8.71524 9.33454C8.84692 8.99551 9.00463 8.75335 9.2589 8.49908C9.51317 8.2448 9.75534 8.0874 10.0944 7.95542C10.3505 7.85552 10.735 7.73747 11.4434 7.70493C12.1136 7.67466 12.3733 7.66558 13.7273 7.66406V7.66588ZM18.257 8.87215C17.7757 8.87215 17.3852 9.26219 17.3852 9.74364C17.3852 10.2249 17.7757 10.6154 18.257 10.6154C18.7383 10.6154 19.1288 10.2249 19.1288 9.74364C19.1288 9.26234 18.7383 8.87185 18.257 8.87185V8.87215ZM10.6482 13.6217C10.6482 11.5614 12.3186 9.89094 14.3789 9.89086C16.4392 9.89086 18.1093 11.5613 18.1093 13.6217C18.1093 15.6821 16.4394 17.3518 14.379 17.3518C12.3186 17.3518 10.6482 15.6821 10.6482 13.6217Z" fill="#7D7D7D"/>
<path d="M14.379 11.2002C15.7164 11.2002 16.8007 12.2843 16.8007 13.6218C16.8007 14.9592 15.7164 16.0435 14.379 16.0435C13.0415 16.0435 11.9574 14.9592 11.9574 13.6218C11.9574 12.2843 13.0415 11.2002 14.379 11.2002V11.2002Z" fill="#7D7D7D"/>
</svg>
