<svg width="51" height="46" viewBox="0 0 51 46" fill="none" xmlns="http://www.w3.org/2000/svg">
<path d="M25.5025 4.13374C31.2771 -1.05088 40.2008 -0.878799 45.764 4.69424C51.3248 10.2697 51.5165 19.1492 46.3442 24.9411L25.4975 45.8172L4.6558 24.9411C-0.516537 19.1492 -0.322328 10.255 5.23596 4.69424C10.8041 -0.871424 19.7106 -1.05826 25.5025 4.13374ZM42.283 8.16787C38.5955 4.47545 32.6464 4.32549 28.7868 7.79174L25.5049 10.7368L22.2206 7.7942C18.3487 4.32303 12.4118 4.47545 8.71451 8.17278C5.05159 11.8357 4.86721 17.6988 8.24251 21.5732L25.5 38.8577L42.7575 21.5756C46.1353 17.6988 45.9509 11.8431 42.283 8.16787Z" fill="#D2B574"/>
</svg>
