<svg width="53" height="53" viewBox="0 0 53 53" fill="none" xmlns="http://www.w3.org/2000/svg">
<path d="M0.916668 52.0833C0.916668 46.8673 2.98869 41.865 6.6769 38.1768C10.3651 34.4886 15.3674 32.4166 20.5833 32.4166C25.7993 32.4166 30.8016 34.4886 34.4898 38.1768C38.178 41.865 40.25 46.8673 40.25 52.0833H35.3333C35.3333 48.1713 33.7793 44.4196 31.0132 41.6534C28.247 38.8873 24.4953 37.3333 20.5833 37.3333C16.6714 37.3333 12.9197 38.8873 10.1535 41.6534C7.38735 44.4196 5.83333 48.1713 5.83333 52.0833H0.916668ZM20.5833 29.9583C12.434 29.9583 5.83333 23.3576 5.83333 15.2083C5.83333 7.05888 12.434 0.458252 20.5833 0.458252C28.7327 0.458252 35.3333 7.05888 35.3333 15.2083C35.3333 23.3576 28.7327 29.9583 20.5833 29.9583ZM20.5833 25.0416C26.0163 25.0416 30.4167 20.6412 30.4167 15.2083C30.4167 9.77534 26.0163 5.37492 20.5833 5.37492C15.1504 5.37492 10.75 9.77534 10.75 15.2083C10.75 20.6412 15.1504 25.0416 20.5833 25.0416ZM40.9482 34.1448C44.403 35.7007 47.3349 38.2213 49.3915 41.4035C51.4482 44.5858 52.5421 48.2943 52.5417 52.0833H47.625C47.6256 49.2414 46.8053 46.4598 45.2628 44.073C43.7202 41.6862 41.5211 39.7957 38.9299 38.6288L40.9457 34.1448H40.9482ZM39.2568 6.39021C41.7337 7.41115 43.8514 9.14487 45.3412 11.3714C46.8311 13.5979 47.626 16.2168 47.625 18.8958C47.626 22.2694 46.3656 25.5215 44.0912 28.0133C41.8169 30.505 38.6931 32.0564 35.3333 32.3625V27.4139C37.1548 27.153 38.8447 26.3151 40.1549 25.023C41.4651 23.731 42.3265 22.053 42.6128 20.2354C42.8991 18.4177 42.5952 16.5562 41.7456 14.924C40.896 13.2918 39.5456 11.9749 37.8925 11.1668L39.2568 6.39021Z" fill="#D2B574"/>
</svg>
