<svg width="41" height="53" viewBox="0 0 41 53" fill="none" xmlns="http://www.w3.org/2000/svg">
<path d="M20.5 13.2082C25.7159 13.2082 30.7182 15.2802 34.4064 18.9684C38.0946 22.6566 40.1667 27.6589 40.1667 32.8749C40.1667 38.0908 38.0946 43.0931 34.4064 46.7813C30.7182 50.4695 25.7159 52.5415 20.5 52.5415C15.2841 52.5415 10.2818 50.4695 6.59357 46.7813C2.90535 43.0931 0.833336 38.0908 0.833336 32.8749C0.833336 27.6589 2.90535 22.6566 6.59357 18.9684C10.2818 15.2802 15.2841 13.2082 20.5 13.2082ZM20.5 18.1249C16.5881 18.1249 12.8363 19.6789 10.0702 22.445C7.30402 25.2112 5.75 28.9629 5.75 32.8749C5.75 36.7868 7.30402 40.5385 10.0702 43.3047C12.8363 46.0708 16.5881 47.6249 20.5 47.6249C24.4119 47.6249 28.1637 46.0708 30.9298 43.3047C33.696 40.5385 35.25 36.7868 35.25 32.8749C35.25 28.9629 33.696 25.2112 30.9298 22.445C28.1637 19.6789 24.4119 18.1249 20.5 18.1249ZM20.5 21.8124L23.7524 28.4007L31.0217 29.4578L25.7608 34.5834L27.0023 41.8256L20.5 38.4061L13.9977 41.8232L15.2392 34.5834L9.97833 29.4553L17.2476 28.3982L20.5 21.8124ZM35.25 0.916521V8.29152L31.8993 11.0891C29.1188 9.63029 26.083 8.72132 22.9583 8.41198V0.916521H35.25ZM18.0417 0.914062V8.41198C14.918 8.72086 11.8831 9.62898 9.10317 11.0866L5.75 8.29152V0.916521L18.0417 0.914062Z" fill="#D2B574"/>
</svg>
