<svg width="55" height="51" viewBox="0 0 55 51" fill="none" xmlns="http://www.w3.org/2000/svg">
<path d="M49.625 28.5533V45.1668H52.0833V50.0834H2.91668V45.1668H5.37501V28.5533C3.86159 27.5432 2.62097 26.175 1.76328 24.5703C0.90558 22.9655 0.457341 21.1738 0.458345 19.3542C0.458345 17.3212 1.00901 15.3619 2.01447 13.6927L8.68147 2.14591C8.89723 1.77221 9.20755 1.46188 9.58125 1.24612C9.95496 1.03035 10.3789 0.916759 10.8104 0.916748H44.1921C44.6236 0.916759 45.0475 1.03035 45.4212 1.24612C45.7949 1.46188 46.1053 1.77221 46.321 2.14591L52.9634 13.6558C54.43 16.0917 54.9014 18.9991 54.2796 21.7736C53.6579 24.5481 51.9908 26.9762 49.625 28.5533ZM44.7083 30.3479C43.0181 30.5375 41.3069 30.3345 39.7079 29.7546C38.1089 29.1747 36.6654 28.2336 35.4896 27.0046C34.4576 28.084 33.2176 28.943 31.8444 29.5299C30.4712 30.1168 28.9934 30.4193 27.5 30.4192C26.007 30.4199 24.5294 30.1182 23.1562 29.5322C21.783 28.9461 20.5428 28.088 19.5104 27.0095C18.3344 28.2381 16.8908 29.1787 15.2918 29.7582C13.6929 30.3377 11.9818 30.5403 10.2917 30.3504V45.1668H44.7083V30.3504V30.3479ZM12.2313 5.83342L6.25018 16.1904C5.66897 17.6264 5.65153 19.2289 6.20133 20.6773C6.75114 22.1256 7.82764 23.3129 9.21537 24.0015C10.6031 24.6901 12.1997 24.8292 13.6856 24.3909C15.1715 23.9527 16.4371 22.9695 17.2291 21.638C18.0526 19.5804 20.9658 19.5804 21.7918 21.638C22.2473 22.7797 23.0347 23.7586 24.0523 24.4482C25.0698 25.1377 26.2708 25.5063 27.5 25.5063C28.7292 25.5063 29.9302 25.1377 30.9478 24.4482C31.9653 23.7586 32.7527 22.7797 33.2083 21.638C34.0318 19.5804 36.9449 19.5804 37.7709 21.638C38.09 22.4234 38.568 23.1342 39.175 23.7258C39.782 24.3175 40.5048 24.7772 41.298 25.0761C42.0912 25.3749 42.9376 25.5065 43.7841 25.4624C44.6306 25.4184 45.4589 25.1997 46.2168 24.8202C46.9747 24.4406 47.6459 23.9084 48.1882 23.2569C48.7305 22.6055 49.1322 21.8489 49.368 21.0347C49.6039 20.2205 49.6687 19.3664 49.5585 18.5259C49.4483 17.6855 49.1655 16.8769 48.7277 16.151L42.7663 5.83342H12.2338H12.2313Z" fill="#D2B574"/>
</svg>
