<svg width="28" height="29" viewBox="0 0 28 29" fill="none" xmlns="http://www.w3.org/2000/svg">
<path fill-rule="evenodd" clip-rule="evenodd" d="M0.756714 14.4322C0.756714 21.9552 6.85532 28.0538 14.3783 28.0538C21.9014 28.0538 28 21.9552 28 14.4322C28 6.90915 21.9014 0.810547 14.3783 0.810547C6.85532 0.810547 0.756714 6.90915 0.756714 14.4322ZM22.9271 13.9107C22.9253 18.3757 19.2932 22.0087 14.8273 22.0105H14.824C13.4684 22.01 12.1363 21.6699 10.9533 21.0246L6.65941 22.151L7.80852 17.9537C7.09969 16.7253 6.72672 15.3319 6.72732 13.9044C6.7291 9.43843 10.3627 5.80503 14.8272 5.80503C16.994 5.80597 19.0277 6.6495 20.557 8.18053C22.0862 9.7115 22.928 11.7465 22.9271 13.9107Z" fill="#7D7D7D"/>
<path fill-rule="evenodd" clip-rule="evenodd" d="M8.60416 20.2269L11.1522 19.5585L11.398 19.7044C12.4317 20.3178 13.6165 20.6423 14.8246 20.6428H14.8273C18.5379 20.6428 21.558 17.6227 21.5595 13.9105C21.5602 12.1116 20.8606 10.4202 19.5895 9.14765C18.3185 7.87511 16.6281 7.17396 14.83 7.17334C11.1165 7.17334 8.09635 10.1932 8.09488 13.9051C8.09436 15.1771 8.45029 16.416 9.1242 17.4879L9.28427 17.7426L8.60416 20.2269ZM18.6308 15.6549C18.7719 15.7231 18.8673 15.7692 18.908 15.8371C18.9585 15.9215 18.9585 16.3267 18.79 16.7995C18.6213 17.2723 17.8127 17.7038 17.4238 17.7618C17.0752 17.814 16.6339 17.8357 16.1491 17.6816C15.8552 17.5884 15.4782 17.4638 14.9953 17.2553C13.098 16.436 11.8158 14.5971 11.5735 14.2496C11.5565 14.2252 11.5446 14.2082 11.538 14.1993L11.5363 14.1972C11.4292 14.0543 10.7116 13.0967 10.7116 12.1057C10.7116 11.1735 11.1695 10.6848 11.3803 10.4599C11.3947 10.4445 11.408 10.4303 11.4199 10.4173C11.6054 10.2147 11.8247 10.164 11.9596 10.164C12.0945 10.164 12.2296 10.1653 12.3475 10.1712C12.3621 10.1719 12.3772 10.1719 12.3928 10.1718C12.5108 10.1711 12.6578 10.1702 12.8029 10.5186C12.8587 10.6527 12.9403 10.8515 13.0264 11.0612C13.2006 11.4851 13.393 11.9536 13.4269 12.0214C13.4775 12.1227 13.5112 12.2408 13.4437 12.376C13.4336 12.3962 13.4242 12.4154 13.4153 12.4336C13.3646 12.5371 13.3274 12.6132 13.2414 12.7136C13.2075 12.7531 13.1726 12.7956 13.1376 12.8382C13.068 12.923 12.9984 13.0078 12.9378 13.0682C12.8365 13.1691 12.731 13.2786 12.849 13.4812C12.9671 13.6838 13.3733 14.3465 13.9749 14.8832C14.6217 15.4601 15.1838 15.7039 15.4687 15.8275C15.5244 15.8517 15.5694 15.8712 15.6025 15.8877C15.8048 15.9891 15.9229 15.9721 16.041 15.8371C16.159 15.702 16.5469 15.2461 16.6818 15.0435C16.8167 14.841 16.9517 14.8747 17.1371 14.9422C17.3227 15.0098 18.3177 15.4994 18.5201 15.6007C18.5596 15.6205 18.5965 15.6383 18.6308 15.6549Z" fill="#7D7D7D"/>
</svg>
