<svg width="33" height="33" viewBox="0 0 33 33" fill="none" xmlns="http://www.w3.org/2000/svg">
<path d="M16.5 33C25.6127 33 33 25.6127 33 16.5C33 7.3873 25.6127 0 16.5 0C7.3873 0 0 7.3873 0 16.5C0 25.6127 7.3873 33 16.5 33Z" fill="white"/>
<path d="M26.3851 16.5794C26.3851 19.9639 23.6466 22.7076 20.2685 22.7076C16.8904 22.7076 14.1519 19.9639 14.1519 16.5794C14.1519 13.1949 16.8904 10.4512 20.2685 10.4512C23.6466 10.4512 26.3851 13.1949 26.3851 16.5794Z" fill="#F79F1A"/>
<path d="M18.8397 16.5794C18.8397 19.9639 16.1012 22.7076 12.7231 22.7076C9.34495 22.7076 6.60645 19.9639 6.60645 16.5794C6.60645 13.1949 9.34495 10.4512 12.7231 10.4512C16.1012 10.4512 18.8397 13.1949 18.8397 16.5794Z" fill="#EA001B"/>
<path d="M16.4961 11.7551C15.0689 12.877 14.1528 14.6203 14.1528 16.5787C14.1528 18.5371 15.0689 20.2818 16.4961 21.4036C17.9233 20.2818 18.8394 18.5371 18.8394 16.5787C18.8394 14.6203 17.9233 12.877 16.4961 11.7551Z" fill="#FF5F01"/>
</svg>
