<svg width="32" height="32" viewBox="0 0 32 32" fill="none" xmlns="http://www.w3.org/2000/svg">
<path d="M0 16C0 7.16344 7.16344 0 16 0C24.8366 0 32 7.16344 32 16C32 24.8366 24.8366 32 16 32C7.16344 32 0 24.8366 0 16Z" fill="white"/>
<path d="M13.4749 24.082L13.7538 22.3103L13.1325 22.2959H10.1655L12.2274 9.22228C12.2338 9.18281 12.2546 9.14601 12.285 9.11988C12.3154 9.09375 12.3543 9.07935 12.3949 9.07935H17.3975C19.0583 9.07935 20.2045 9.42495 20.8029 10.1071C21.0834 10.4271 21.2621 10.7615 21.3485 11.1295C21.4391 11.5156 21.4407 11.9769 21.3522 12.5396L21.3458 12.5807V12.9412L21.6263 13.1001C21.8626 13.2255 22.0503 13.3689 22.1943 13.5332C22.4343 13.8068 22.5895 14.1545 22.6551 14.5668C22.7229 14.9908 22.7005 15.4953 22.5895 16.0665C22.4615 16.7236 22.2546 17.2959 21.9751 17.7641C21.7181 18.1956 21.3906 18.5535 21.0018 18.8308C20.6306 19.0943 20.1895 19.2943 19.6909 19.4223C19.2077 19.5481 18.6567 19.6116 18.0525 19.6116H17.6631C17.3847 19.6116 17.1143 19.7119 16.9021 19.8916C16.6893 20.0751 16.5485 20.3257 16.5053 20.5999L16.4759 20.7593L15.9831 23.882L15.9607 23.9967C15.9549 24.0329 15.9447 24.0511 15.9298 24.0633C15.9165 24.0745 15.8973 24.082 15.8786 24.082H13.4749Z" fill="#253B80"/>
<path d="M21.8922 12.6223C21.8773 12.7178 21.8602 12.8154 21.841 12.9156C21.1813 16.3028 18.9242 17.473 16.0415 17.473H14.5738C14.2213 17.473 13.9242 17.729 13.8693 18.0767L13.1178 22.8426L12.905 24.1935C12.8693 24.4218 13.0453 24.6276 13.2757 24.6276H15.8789C16.1871 24.6276 16.449 24.4036 16.4975 24.0996L16.5231 23.9674L17.0133 20.857L17.0447 20.6863C17.0927 20.3812 17.3551 20.1572 17.6634 20.1572H18.0527C20.5749 20.1572 22.5493 19.1332 23.1263 16.17C23.3674 14.9322 23.2426 13.8986 22.6047 13.1716C22.4117 12.9524 22.1722 12.7706 21.8922 12.6223Z" fill="#179BD7"/>
<path d="M21.2019 12.3474C21.1011 12.3181 20.9971 12.2914 20.8905 12.2674C20.7833 12.2439 20.6734 12.2231 20.5603 12.205C20.1646 12.141 19.731 12.1106 19.2665 12.1106H15.3454C15.2489 12.1106 15.1571 12.1325 15.075 12.1719C14.8942 12.2589 14.7598 12.4301 14.7273 12.6397L13.8931 17.9229L13.8691 18.077C13.9241 17.7293 14.2211 17.4733 14.5737 17.4733H16.0414C18.9241 17.4733 21.1811 16.3026 21.8409 12.9159C21.8606 12.8157 21.8771 12.7181 21.8921 12.6226C21.7251 12.5341 21.5443 12.4583 21.3497 12.3938C21.3017 12.3778 21.2521 12.3623 21.2019 12.3474Z" fill="#222D65"/>
<path d="M15.0753 12.1721C15.158 12.1327 15.2492 12.1108 15.3457 12.1108H19.2668C19.7313 12.1108 20.1649 12.1412 20.5606 12.2052C20.6737 12.2233 20.7836 12.2441 20.8908 12.2676C20.9974 12.2916 21.1014 12.3183 21.2022 12.3476C21.2524 12.3625 21.302 12.378 21.3505 12.3935C21.5452 12.458 21.726 12.5343 21.8929 12.6223C22.0892 11.3705 21.8913 10.5183 21.2145 9.74654C20.4684 8.89694 19.1217 8.5332 17.3985 8.5332H12.3958C12.0438 8.5332 11.7436 8.7892 11.6892 9.13747L9.60543 22.3455C9.56436 22.6068 9.76596 22.8425 10.0294 22.8425H13.118L13.8934 17.9225L14.7276 12.6393C14.7601 12.4297 14.8945 12.2585 15.0753 12.1721Z" fill="#253B80"/>
</svg>
