<svg width="33" height="33" viewBox="0 0 33 33" fill="none" xmlns="http://www.w3.org/2000/svg">
<path d="M16.5 33C25.6127 33 33 25.6127 33 16.5C33 7.3873 25.6127 0 16.5 0C7.3873 0 0 7.3873 0 16.5C0 25.6127 7.3873 33 16.5 33Z" fill="white"/>
<path fill-rule="evenodd" clip-rule="evenodd" d="M16.8475 15.8631C16.8362 16.7591 17.6396 17.2592 18.2448 17.5565C18.8667 17.8616 19.0755 18.0572 19.0732 18.3299C19.0684 18.7474 18.5771 18.9317 18.1173 18.9389C17.3367 18.9511 16.8741 18.7328 16.508 18.5601L16.4778 18.5459L16.1888 19.9091C16.5609 20.0819 17.2498 20.2327 17.9642 20.2393C19.641 20.2393 20.7382 19.4048 20.7441 18.111C20.748 17.1287 19.9409 16.7015 19.2951 16.3597C18.8613 16.1301 18.5003 15.939 18.5065 15.6442C18.5118 15.4217 18.7225 15.1842 19.1841 15.1238C19.4126 15.0933 20.0433 15.0699 20.7583 15.4019L21.039 14.083C20.6545 13.9418 20.1602 13.8066 19.5449 13.8066C17.9665 13.8066 16.8564 14.6524 16.8475 15.8631ZM23.7357 13.9203C23.4296 13.9203 23.1715 14.1004 23.0563 14.3767L20.6609 20.1424L22.3366 20.1424L22.6701 19.2135H24.7178L24.9112 20.1424H26.3881L25.0993 13.9203L23.7357 13.9203ZM24.454 17.9376L23.9704 15.6012L23.1296 17.9376H24.454ZM14.8157 13.9203L13.4949 20.1424H15.0916L16.4119 13.9203H14.8157ZM10.7916 18.1553L12.4536 13.9203H14.1305L11.5434 20.1424H9.85585L8.58248 15.1771C8.50534 14.8714 8.43829 14.7589 8.20332 14.6303C7.81941 14.4198 7.1857 14.223 6.62793 14.101L6.66591 13.9203H9.38293C9.72887 13.9203 10.0404 14.1524 10.1193 14.5544L10.7916 18.1553Z" fill="url(#paint0_linear_193_1023)"/>
<defs>
<linearGradient id="paint0_linear_193_1023" x1="6.66237" y1="15.7851" x2="12.2478" y2="7.91887" gradientUnits="userSpaceOnUse">
<stop stop-color="#222357"/>
<stop offset="1" stop-color="#254AA5"/>
</linearGradient>
</defs>
</svg>
